<svg version="1.2" xmlns="http://www.w3.org/2000/svg" viewBox="0 0 613 88" width="613" height="88">
	<title>logo</title>
	<defs>
		<clipPath clipPathUnits="userSpaceOnUse" id="cp1">
			<path d="m614.17 1.27v86.2h-199.34v-86.2z"/>
		</clipPath>
	</defs>
	<style>
		.s0 { fill: #0a0a0a } 
		.s1 { fill: #dc2626 } 
	</style>
	<g id="Vrstva_2">
		<g id="Layer_1">
			<path class="s0" d="m192.45 0h11.07v77.66h38v9.34h-49.07z"/>
			<path class="s0" d="m304.38 0h12.5l29.44 87h-11.73l-15.17-48.57c-3.13-9.73-5.92-19.29-8.72-29.33h-0.53c-2.69 10.09-5.48 19.6-8.61 29.33l-15.35 48.57h-11.27zm-14 51.69h40.12v8.83h-40.08z"/>
			<path class="s0" d="m379.29 0h25.84c17.7 0 29.94 6 29.94 21.32 0 8.6-4.58 16.24-12.72 18.9v0.53c10.4 2 17.7 8.92 17.7 20.83 0 17.09-13.54 25.46-32.94 25.46h-27.82zm24 37c14.8 0 20.93-5.46 20.93-14.29 0-10.16-7-14-20.43-14h-13.42v28.29zm2.26 41.21c14.88 0 23.65-5.36 23.65-17.09 0-10.73-8.43-15.63-23.65-15.63h-15.18v32.76z"/>
			<path class="s1" d="m0 0.27h22.14l27.91 64c2.39-9.27 27.12-64 27.12-64h21.34l-35.46 86.2h-27.59z"/>
			<path class="s1" d="m133.18 86.47h25.46l-18.73-33.47c8.39-4.52 14-12.56 14-24.88-0.04-21.48-15.91-27.85-34.52-27.85h-42.62v18h41c9 0 13.79 2.39 13.79 9.81 0 7.42-4.77 11.41-13.79 11.41h-26.19l-8 18h35.08z"/>
			<g id="Clip-Path: Clip-Path" clip-path="url(#cp1)">
				<g id="Clip-Path">
					<g>
						<path class="s0" d="m612 43.49l-33.56-0.19v-1.59c0.51-0.06 1-0.06 1.54-0.12q0.1-0.01 0.19-0.02 0.1-0.01 0.2-0.02 0.1-0.02 0.19-0.04 0.1-0.02 0.19-0.05 0.5-0.06 0.95-0.29 0.44-0.24 0.78-0.61 0.33-0.38 0.52-0.85 0.18-0.47 0.18-0.97 0.12-1.14 0.13-2.28 0.09-13.86 0.19-27.72 0-0.32-0.01-0.65-0.01-0.32-0.04-0.65-0.02-0.32-0.06-0.65-0.03-0.32-0.08-0.64-0.03-0.49-0.23-0.93-0.2-0.44-0.54-0.79-0.35-0.34-0.8-0.53-0.44-0.2-0.93-0.22l-1.6-0.19c-0.58 0-0.58 0.06-0.58-0.51v-0.98c0-0.06 0-0.06 0.07-0.12l32.72 0.19-0.13 13h-2.11c-0.07-0.76-0.07-1.52-0.13-2.28-0.06-1.07-0.19-2.15-0.32-3.23q-0.06-0.49-0.23-0.96-0.17-0.46-0.44-0.88-0.28-0.41-0.64-0.74-0.37-0.34-0.8-0.58-0.41-0.22-0.83-0.41-0.43-0.18-0.87-0.31-0.45-0.14-0.9-0.23-0.46-0.09-0.92-0.13-1.26-0.1-2.52-0.17-1.26-0.07-2.53-0.1-1.26-0.03-2.52-0.02-1.27 0-2.53 0.04c-1.15 0-1.54 0.44-1.6 1.58v0.83c0 4.24-0.07 8.54-0.07 12.78v0.51h7.11q0.14 0 0.29-0.02 0.14-0.01 0.29-0.02 0.14-0.02 0.28-0.04 0.15-0.02 0.29-0.05 0.35-0.05 0.66-0.2 0.32-0.15 0.58-0.38 0.25-0.24 0.43-0.55 0.17-0.3 0.25-0.64c0.13-0.76 0.26-1.52 0.32-2.34v-1.14h1.8l-0.07 15.88h-1.66c-0.07-0.76 0-1.58-0.13-2.34q-0.05-0.33-0.11-0.66-0.06-0.32-0.13-0.65-0.07-0.32-0.16-0.64-0.08-0.32-0.18-0.64-0.16-0.46-0.45-0.85-0.29-0.39-0.68-0.67-0.4-0.28-0.86-0.43-0.46-0.14-0.95-0.14c-2.24-0.07-4.48-0.07-6.79-0.07q-0.03 0-0.05 0-0.03 0-0.05 0.01-0.03 0.01-0.05 0.03-0.02 0.01-0.04 0.03v0.5c0 4.18-0.06 8.36-0.06 12.53v0.95q-0.02 0.36 0.09 0.7 0.11 0.35 0.33 0.64 0.22 0.28 0.52 0.48 0.31 0.19 0.66 0.27 0.35 0.1 0.71 0.18 0.36 0.08 0.72 0.15 0.36 0.06 0.72 0.11 0.36 0.04 0.73 0.07 0.97 0.08 1.95 0.11 0.98 0.03 1.96 0.03 0.97-0.01 1.95-0.06 0.98-0.05 1.95-0.14 0.36-0.03 0.72-0.08 0.37-0.04 0.73-0.1 0.36-0.06 0.72-0.12 0.35-0.07 0.71-0.15 0.7-0.11 1.32-0.44 0.62-0.34 1.08-0.87 0.47-0.53 0.73-1.19 0.25-0.65 0.27-1.36 0.27-3 0.44-6v-0.51h1.92z"/>
						<path class="s0" d="m596.48 87.47l-19.6-0.12v-1.52c0.51-0.07 1.09-0.07 1.6-0.13q0.19-0.02 0.37-0.04 0.19-0.03 0.37-0.06 0.19-0.03 0.37-0.07 0.19-0.04 0.37-0.08 0.39-0.07 0.75-0.25 0.35-0.18 0.64-0.46 0.28-0.28 0.46-0.63 0.19-0.36 0.26-0.75 0.06-0.25 0.1-0.49 0.05-0.25 0.08-0.5 0.03-0.25 0.05-0.51 0.02-0.25 0.03-0.5 0.11-12.15 0.12-24.3-0.01-0.08-0.03-0.16-0.02-0.08-0.04-0.16-0.02-0.08-0.05-0.16-0.03-0.08-0.07-0.15l-0.57 0.38q-0.05 0.07-0.1 0.13-0.04 0.07-0.08 0.15-0.04 0.07-0.08 0.14-0.04 0.07-0.07 0.15c-4.54 9.87-9 19.68-13.57 29.55-0.19 0.38-0.38 0.51-0.77 0.45q-0.12-0.03-0.25-0.04-0.12-0.01-0.25-0.01-0.13 0-0.25 0.01-0.13 0.01-0.25 0.04-0.1 0.02-0.19 0-0.09-0.02-0.17-0.08-0.09-0.05-0.14-0.13-0.06-0.08-0.08-0.17-3.36-7.8-6.72-15.51l-6.15-14.24q-0.05-0.11-0.11-0.21-0.06-0.11-0.14-0.2-0.07-0.1-0.15-0.19-0.09-0.08-0.18-0.16-0.39-0.29-0.51 0.19v0.32c-0.06 7.47-0.06 15-0.13 22.47q0 0.3 0.01 0.6 0.01 0.3 0.04 0.6 0.02 0.3 0.06 0.6 0.04 0.3 0.09 0.6 0.07 0.54 0.29 1.04 0.22 0.51 0.58 0.92 0.35 0.41 0.82 0.71 0.46 0.29 0.99 0.43c0.84 0.26 1.73 0.38 2.63 0.64q0.04 0 0.08 0 0.04 0 0.08 0.01 0.04 0.01 0.08 0.02 0.04 0.01 0.08 0.03v1.58l-15.37-0.06v-1.36c0-0.07 0.19-0.19 0.32-0.19 0.77-0.19 1.6-0.26 2.37-0.51q0.64-0.15 1.2-0.49 0.57-0.35 0.99-0.85 0.42-0.51 0.67-1.12 0.24-0.61 0.28-1.27c0.06-0.7 0.13-1.46 0.13-2.16 0.06-9.17 0.13-18.29 0.19-27.46q0.01-0.19 0-0.38 0-0.19-0.02-0.38-0.01-0.19-0.04-0.38-0.03-0.19-0.07-0.38-0.04-0.39-0.18-0.75-0.15-0.36-0.39-0.66-0.25-0.3-0.57-0.52-0.32-0.22-0.69-0.33-0.41-0.14-0.83-0.25-0.42-0.1-0.85-0.17-0.42-0.08-0.86-0.11-0.43-0.04-0.86-0.04h-0.51v-1.54h0.45c4.61 0 9.29 0.06 13.9 0.06q0.09-0.02 0.19 0 0.09 0.02 0.17 0.08 0.08 0.05 0.13 0.13 0.06 0.08 0.08 0.17 6 13.96 12 27.91 0.03 0.06 0.05 0.13 0.03 0.06 0.05 0.12 0.03 0.07 0.05 0.13 0.02 0.06 0.04 0.13 0.01-0.05 0.03-0.1 0.02-0.05 0.05-0.1 0.02-0.05 0.05-0.09 0.03-0.05 0.06-0.09c4.29-9.24 8.65-18.54 12.94-27.78q0.02-0.11 0.08-0.2 0.06-0.09 0.15-0.15 0.09-0.06 0.2-0.09 0.1-0.02 0.21-0.01c4.35 0.07 8.71 0.07 13.06 0.07h0.45v1.58c-0.58 0.06-1.15 0.06-1.73 0.13q-0.18 0.02-0.36 0.04-0.17 0.03-0.35 0.06-0.18 0.03-0.35 0.07-0.18 0.04-0.35 0.08-0.4 0.11-0.76 0.34-0.35 0.22-0.62 0.55-0.27 0.32-0.42 0.71-0.16 0.38-0.2 0.8-0.05 0.27-0.08 0.54-0.04 0.27-0.06 0.54-0.03 0.27-0.04 0.54-0.01 0.27-0.01 0.54c-0.05 9.43-0.15 18.86-0.15 28.27q0 0.25 0.01 0.5 0.01 0.25 0.03 0.5 0.01 0.25 0.04 0.5 0.02 0.25 0.05 0.5c0.25 1.83 1.09 2.59 2.94 2.84l2 0.19q0.08-0.01 0.15 0.02 0.08 0.02 0.13 0.08 0.06 0.05 0.08 0.13 0.03 0.07 0.02 0.15 0.02 0.13 0.03 0.26 0.01 0.14 0.01 0.27 0 0.13 0 0.26 0 0.14-0.01 0.27z"/>
						<path class="s0" d="m547.94 20.7h1.06q0.05-0.01 0.1-0.03 0.05-0.02 0.09-0.05 0.04-0.04 0.08-0.08 0.03-0.04 0.05-0.09c4.16-4.81 8.32-9.68 12.48-14.49 0.32-0.38 0.71-0.76 1-1.14q0.87-0.97-0.39-1.27c-0.84-0.19-1.4-0.19-2.17-0.32v-1.45l14.79 0.06v1.58h-1.47q-1.18 0.01-2.34 0.28-1.15 0.27-2.22 0.79-1.06 0.52-1.98 1.26-0.93 0.74-1.66 1.67c-3 3.67-6.15 7.22-9.22 10.89q-0.03 0.04-0.06 0.08-0.03 0.04-0.07 0.08-0.03 0.04-0.06 0.08-0.04 0.03-0.07 0.07l1.92 2.79c2.82 4.11 5.58 8.23 8.52 12.28q0.68 0.95 1.42 1.84 0.75 0.89 1.56 1.73 0.81 0.83 1.69 1.6 0.87 0.77 1.8 1.47 0.39 0.29 0.82 0.51 0.42 0.23 0.88 0.4 0.45 0.17 0.92 0.28 0.48 0.1 0.96 0.14c0.07 0 0.2 0.06 0.26 0.06v1.52l-18.57-0.12v-1.6h1.94q0.15 0.03 0.3 0.01 0.15-0.02 0.29-0.09 0.13-0.06 0.24-0.17 0.11-0.11 0.17-0.25 0.06-0.13 0.09-0.27 0.02-0.15 0-0.29-0.01-0.14-0.07-0.28-0.06-0.13-0.15-0.24c-1.73-2.4-3.39-4.87-5.12-7.28-2-2.91-4.1-5.82-6.08-8.73q-0.07-0.14-0.18-0.25-0.1-0.11-0.24-0.18-0.13-0.08-0.28-0.11-0.15-0.04-0.3-0.03h-0.51c0 0.13-0.06 0.19-0.06 0.32 0 4.49-0.07 9-0.07 13.48q0.01 0.17 0.02 0.35 0.01 0.17 0.02 0.35 0.02 0.17 0.04 0.34 0.02 0.18 0.05 0.35c0.26 1.71 1.09 2.47 2.88 2.72 0.83 0.13 1.6 0.19 2.5 0.25v1.48h-18.92v-1.48c0.58-0.06 1.15-0.06 1.73-0.12q0.18-0.02 0.36-0.05 0.17-0.03 0.35-0.06 0.18-0.03 0.35-0.07 0.18-0.04 0.35-0.08 0.42-0.09 0.79-0.32 0.36-0.23 0.64-0.56 0.27-0.34 0.42-0.74 0.14-0.41 0.15-0.84c0.13-0.76 0.13-1.52 0.19-2.28 0.07-9.24 0.13-18.55 0.2-27.79q0-0.34-0.01-0.68-0.02-0.34-0.04-0.68-0.03-0.34-0.06-0.68-0.04-0.34-0.09-0.68-0.05-0.41-0.23-0.77-0.18-0.37-0.46-0.66-0.29-0.29-0.65-0.48-0.37-0.18-0.77-0.24c-0.7-0.13-1.47-0.19-2.24-0.32-0.26 0-0.45-0.06-0.7-0.06v-1.52l18.67 0.16v1.49c-0.57 0.06-1.21 0.06-1.79 0.12q-0.19 0.02-0.37 0.05-0.19 0.02-0.37 0.05-0.18 0.04-0.37 0.08-0.18 0.03-0.36 0.08-0.46 0.1-0.86 0.35-0.4 0.26-0.69 0.63-0.29 0.37-0.43 0.82-0.15 0.45-0.13 0.92-0.03 0.25-0.05 0.5-0.03 0.25-0.04 0.5-0.02 0.25-0.03 0.5-0.01 0.25-0.01 0.5c0 4-0.07 7.91-0.07 11.9-0.06-0.04-0.06 0.09-0.06 0.21z"/>
						<path class="s0" d="m533 41.46v1.54l-19.4-0.13v-1.54c0.64-0.06 1.21-0.06 1.85-0.12l1.35-0.19q0.5-0.05 0.96-0.28 0.45-0.23 0.78-0.61 0.34-0.38 0.52-0.85 0.18-0.47 0.17-0.98c0.07-0.7 0.13-1.46 0.13-2.16 0.06-9.24 0.13-18.48 0.19-27.65 0-0.7 0-1.33-0.06-2-0.26-2-1-2.78-3-3-0.83-0.12-1.73-0.19-2.56-0.25v-1.59l19.27 0.07v1.51c-0.64 0.07-1.28 0.07-1.86 0.13-0.58 0.06-1 0.13-1.6 0.25q-0.44 0.09-0.84 0.32-0.39 0.23-0.68 0.58-0.3 0.34-0.46 0.76-0.17 0.43-0.19 0.88c-0.07 0.76-0.13 1.45-0.13 2.21q-0.11 14-0.19 27.91-0.01 0.25 0 0.5 0 0.25 0.02 0.5 0.01 0.25 0.04 0.5 0.02 0.25 0.06 0.5c0.26 1.9 1.09 2.65 3 2.91 0.86 0.15 1.75 0.22 2.63 0.28z"/>
						<path class="s0" d="m571.38 13.23h1.62l-0.07 8.55 8.65 0.06v1.65l-8.65-0.13-0.06 8.54h-1.6l0.06-8.54-8.64-0.06v-1.58l8.58 0.06z"/>
						<path class="s0" d="m479.94 12.92q0.33 0 0.65 0.04 0.33 0.05 0.64 0.13 0.32 0.09 0.62 0.22 0.3 0.13 0.58 0.3 0.28 0.18 0.54 0.4 0.25 0.22 0.47 0.47 0.22 0.26 0.4 0.54 0.18 0.28 0.32 0.59 0.16 0.33 0.29 0.68 0.12 0.34 0.2 0.7 0.08 0.36 0.12 0.73 0.04 0.36 0.03 0.73 0.01 0.37-0.03 0.74-0.04 0.36-0.12 0.72-0.08 0.36-0.2 0.71-0.13 0.35-0.29 0.68-0.14 0.3-0.33 0.58-0.18 0.28-0.4 0.54-0.22 0.25-0.47 0.47-0.25 0.22-0.53 0.41-0.27 0.18-0.57 0.32-0.3 0.14-0.62 0.23-0.32 0.09-0.64 0.12-0.33 0.04-0.66 0.03-0.19 0-0.38-0.01-0.19-0.01-0.37-0.04-0.19-0.04-0.37-0.09-0.18-0.04-0.36-0.11-0.16-0.05-0.32-0.12-0.16-0.07-0.31-0.15-0.15-0.08-0.3-0.17-0.14-0.1-0.28-0.2-0.12-0.08-0.24-0.18-0.11-0.09-0.22-0.19-0.1-0.11-0.2-0.22-0.09-0.11-0.18-0.23-0.07-0.09-0.13-0.19-0.07-0.1-0.12-0.2-0.06-0.11-0.1-0.21-0.05-0.11-0.09-0.22l0.57-0.25v1.64q-0.01 0.41-0.29 0.71-0.3 0.28-0.71 0.29-0.41-0.01-0.71-0.29-0.28-0.3-0.29-0.71v-12.98q0-0.1 0.02-0.2 0.01-0.1 0.05-0.2 0.03-0.1 0.08-0.19 0.05-0.09 0.11-0.17 0.13-0.15 0.32-0.23 0.18-0.09 0.38-0.09 0.21 0 0.39 0.09 0.19 0.08 0.32 0.23 0.08 0.07 0.14 0.16 0.06 0.09 0.1 0.19 0.04 0.09 0.06 0.2 0.02 0.1 0.02 0.21v5.63l-0.32-0.19q0.02-0.11 0.06-0.22 0.03-0.11 0.08-0.21 0.05-0.11 0.11-0.2 0.06-0.1 0.13-0.19 0.09-0.11 0.19-0.22 0.1-0.11 0.2-0.21 0.11-0.11 0.21-0.2 0.11-0.1 0.23-0.19 0.13-0.1 0.27-0.19 0.14-0.09 0.29-0.17 0.14-0.08 0.29-0.15 0.15-0.07 0.31-0.13 0.17-0.04 0.34-0.06 0.17-0.03 0.34-0.04 0.17-0.02 0.34-0.02 0.17-0.01 0.34 0zm-0.2 1.83q-0.22-0.01-0.44 0.02-0.22 0.03-0.43 0.09-0.22 0.07-0.41 0.17-0.2 0.1-0.38 0.23-0.18 0.11-0.35 0.25-0.17 0.14-0.31 0.3-0.15 0.17-0.27 0.35-0.12 0.17-0.22 0.37-0.11 0.21-0.2 0.43-0.09 0.22-0.14 0.46-0.06 0.23-0.09 0.46-0.02 0.24-0.02 0.48 0 0.24 0.03 0.49 0.02 0.24 0.07 0.48 0.05 0.24 0.12 0.47 0.07 0.23 0.16 0.46 0.1 0.2 0.22 0.39 0.12 0.18 0.26 0.35 0.15 0.17 0.31 0.32 0.17 0.15 0.35 0.27 0.19 0.12 0.39 0.21 0.2 0.09 0.41 0.16 0.21 0.06 0.43 0.09 0.22 0.04 0.44 0.04 0.22 0.01 0.44-0.02 0.22-0.03 0.43-0.09 0.21-0.07 0.41-0.16 0.2-0.1 0.38-0.23 0.19-0.12 0.36-0.27 0.16-0.15 0.31-0.32 0.15-0.16 0.27-0.35 0.12-0.19 0.22-0.39 0.1-0.22 0.18-0.44 0.08-0.23 0.14-0.46 0.06-0.23 0.09-0.47 0.03-0.23 0.04-0.47 0-0.24-0.02-0.48-0.03-0.23-0.09-0.46-0.05-0.24-0.14-0.46-0.09-0.22-0.2-0.43-0.1-0.2-0.22-0.38-0.12-0.17-0.27-0.34-0.15-0.16-0.32-0.3-0.16-0.14-0.35-0.25-0.16-0.15-0.35-0.26-0.18-0.11-0.39-0.19-0.2-0.07-0.42-0.1-0.21-0.03-0.43-0.02z"/>
						<path class="s0" d="m495 13q0.1 0 0.2 0.02 0.1 0.03 0.19 0.07 0.09 0.04 0.17 0.1 0.08 0.06 0.15 0.13 0.08 0.07 0.14 0.16 0.06 0.09 0.09 0.19 0.03 0.1 0.04 0.2 0 0.11-0.02 0.21v8.61q0.02 0.37-0.02 0.74-0.04 0.37-0.13 0.74-0.08 0.36-0.22 0.7-0.14 0.35-0.33 0.67-0.17 0.26-0.38 0.5-0.2 0.24-0.44 0.44-0.24 0.21-0.5 0.39-0.26 0.17-0.54 0.31-0.3 0.13-0.62 0.23-0.31 0.1-0.63 0.16-0.33 0.07-0.65 0.1-0.33 0.03-0.66 0.02-0.18-0.01-0.37-0.02-0.18-0.01-0.37-0.02-0.18-0.02-0.36-0.04-0.19-0.02-0.37-0.05-0.16-0.03-0.31-0.06-0.16-0.04-0.31-0.09-0.16-0.04-0.31-0.1-0.15-0.06-0.29-0.13-0.1-0.05-0.2-0.11-0.09-0.07-0.18-0.14-0.09-0.07-0.17-0.15-0.08-0.08-0.15-0.17-0.04-0.08-0.07-0.16-0.03-0.09-0.04-0.18-0.01-0.09 0-0.18 0.01-0.08 0.04-0.17 0.03-0.1 0.08-0.2 0.04-0.09 0.11-0.18 0.07-0.08 0.15-0.15 0.08-0.06 0.18-0.11 0.08-0.04 0.17-0.07 0.09-0.02 0.18-0.02 0.09 0 0.18 0.02 0.09 0.03 0.17 0.07 0.12 0.04 0.23 0.08 0.12 0.04 0.23 0.09 0.11 0.05 0.22 0.1 0.11 0.05 0.22 0.11 0.15 0.06 0.31 0.11 0.16 0.04 0.32 0.06 0.16 0.03 0.32 0.03 0.17 0.01 0.33-0.01 0.21 0.01 0.43-0.01 0.21-0.01 0.42-0.05 0.21-0.04 0.41-0.1 0.2-0.06 0.4-0.15 0.17-0.07 0.31-0.18 0.15-0.1 0.28-0.23 0.13-0.13 0.23-0.28 0.11-0.14 0.18-0.31 0.1-0.2 0.18-0.42 0.08-0.22 0.13-0.44 0.04-0.22 0.06-0.45 0.02-0.23 0.01-0.46v-1.37l0.32 0.51q-0.07 0.16-0.16 0.3-0.09 0.15-0.19 0.29-0.1 0.13-0.23 0.25-0.12 0.12-0.25 0.23-0.14 0.11-0.28 0.21-0.15 0.1-0.3 0.19-0.16 0.08-0.32 0.16-0.16 0.08-0.32 0.14-0.19 0.07-0.39 0.12-0.2 0.05-0.4 0.08-0.2 0.03-0.4 0.04-0.21 0.02-0.41 0.01-0.25 0.01-0.5-0.02-0.25-0.03-0.5-0.09-0.24-0.07-0.47-0.17-0.24-0.1-0.45-0.23-0.2-0.13-0.38-0.28-0.18-0.16-0.33-0.34-0.15-0.18-0.28-0.38-0.12-0.2-0.22-0.42-0.11-0.23-0.2-0.48-0.08-0.24-0.14-0.49-0.05-0.26-0.08-0.51-0.02-0.26-0.02-0.52v-6q0-0.1 0.01-0.2 0.02-0.1 0.05-0.2 0.03-0.1 0.08-0.19 0.05-0.09 0.11-0.17 0.15-0.14 0.34-0.21 0.19-0.07 0.39-0.08 0.21 0.01 0.4 0.08 0.19 0.07 0.34 0.21 0.08 0.07 0.14 0.16 0.06 0.09 0.1 0.19 0.04 0.09 0.06 0.2 0.02 0.1 0.02 0.21v5.5q-0.02 0.27 0 0.53 0.03 0.27 0.1 0.52 0.08 0.26 0.2 0.5 0.12 0.24 0.28 0.45 0.17 0.16 0.38 0.28 0.2 0.13 0.42 0.21 0.22 0.08 0.46 0.12 0.23 0.03 0.47 0.02 0.17 0 0.35-0.02 0.17-0.02 0.34-0.06 0.17-0.04 0.33-0.1 0.16-0.06 0.32-0.13 0.14-0.07 0.28-0.16 0.13-0.1 0.24-0.21 0.12-0.12 0.21-0.25 0.1-0.13 0.17-0.27 0.08-0.15 0.13-0.32 0.06-0.16 0.1-0.33 0.04-0.17 0.07-0.34 0.02-0.17 0.02-0.34v-5.48q0-0.11 0.03-0.21 0.02-0.1 0.06-0.2 0.04-0.1 0.1-0.18 0.06-0.09 0.13-0.17 0.09-0.07 0.19-0.13 0.1-0.06 0.21-0.11 0.11-0.04 0.22-0.07 0.11-0.03 0.23-0.05z"/>
					</g>
				</g>
			</g>
		</g>
	</g>
</svg>